<svg version="1.1" id="Layer_1" xmlns="http://www.w3.org/2000/svg" xmlns:xlink="http://www.w3.org/1999/xlink" x="0px" y="0px"
	 width="100%" viewBox="0 0 1456 720" enable-background="new 0 0 1456 720" xml:space="preserve">
<path fill="none" opacity="0" stroke="none" 
	d="
M871.000000,721.000000 
	C580.699890,721.000000 290.899811,721.000000 1.049857,721.000000 
	C1.049857,481.060760 1.049857,241.121521 1.049857,1.091141 
	C486.216919,1.091141 971.433838,1.091141 1456.825439,1.091141 
	C1456.825439,240.999893 1456.825439,480.999939 1456.825439,721.000000 
	C1261.787964,721.000000 1066.643921,721.000000 871.000000,721.000000 
M694.099060,312.965149 
	C691.737793,312.962219 689.376526,312.959290 686.445679,312.386261 
	C684.321045,312.398346 682.139404,312.126038 680.094543,312.536072 
	C678.983643,312.758820 678.105469,314.141968 676.988403,315.663055 
	C677.035706,316.108124 677.083008,316.553162 676.988770,317.865051 
	C677.034790,319.910583 677.080811,321.956116 676.987183,324.929565 
	C676.979370,338.948822 676.971619,352.968109 676.377075,367.589935 
	C676.377075,393.508057 676.377075,419.426178 676.377075,445.145630 
	C686.277954,445.145630 695.023254,445.145630 703.827820,445.145630 
	C703.827820,443.184418 703.827820,441.541870 703.978271,439.209381 
	C703.930725,438.508270 703.883179,437.807159 703.986938,436.392181 
	C703.936768,434.927307 703.886597,433.462402 703.978760,431.337280 
	C703.930054,430.892273 703.881348,430.447235 703.981506,429.075104 
	C703.932434,419.382721 703.883362,409.690338 703.978943,399.338165 
	C703.931641,398.892914 703.884338,398.447662 703.986877,397.177155 
	C703.935913,395.783936 703.884949,394.390717 703.977295,392.337463 
	C703.928894,391.892395 703.880493,391.447296 703.981995,390.123199 
	C703.932007,387.748108 703.882019,385.373047 703.978577,382.206848 
	C703.929749,381.138641 703.880920,380.070465 703.981995,378.075226 
	C703.981995,356.540527 703.981995,335.005798 703.981995,312.960175 
	C700.866089,312.960175 697.924988,312.960175 694.099060,312.965149 
M363.289764,401.332092 
	C363.219879,400.899597 363.149994,400.467102 363.294067,399.552368 
	C363.223114,398.688812 363.152130,397.825287 363.308167,396.247192 
	C363.231842,395.509521 363.155487,394.771851 363.293518,393.552185 
	C363.221649,392.688904 363.149750,391.825592 363.304108,390.091980 
	C363.224518,387.404083 363.144958,384.716217 363.279419,381.240967 
	C363.209381,374.149200 363.139374,367.057404 363.296967,359.087067 
	C363.222687,356.068481 363.148407,353.049927 363.268768,349.440704 
	C363.209167,348.094421 363.149597,346.748108 363.056122,344.636536 
	C362.020142,345.913940 361.534088,346.513245 360.436188,347.366119 
	C357.851776,349.942871 355.254181,352.506561 352.685089,355.098511 
	C333.420715,374.534180 314.161987,393.975464 294.361969,413.758972 
	C294.284363,414.162689 294.206787,414.566376 293.892242,415.887268 
	C293.787628,417.876465 293.592987,419.865662 293.592010,421.854889 
	C293.578705,448.612610 293.561554,475.370422 293.610901,502.128052 
	C293.640900,518.407410 293.783783,534.686462 293.674072,551.668030 
	C294.137939,552.499268 294.601807,553.330566 295.698425,553.915283 
	C302.961456,547.326782 310.229309,540.743530 317.486603,534.148743 
	C332.593079,520.421143 347.693939,506.687347 363.226196,492.251617 
	C363.174774,476.489288 363.123352,460.726990 363.307831,444.251770 
	C363.232178,443.512878 363.156525,442.773987 363.299072,441.415833 
	C363.223846,434.932098 363.148651,428.448395 363.270020,421.673370 
	C363.270020,421.673370 363.054016,421.396210 363.272888,420.970093 
	C363.198853,420.509094 363.124786,420.048065 363.136780,419.493652 
	C363.136780,419.493652 363.054779,419.396667 363.274994,418.972626 
	C363.200806,418.513855 363.126617,418.055054 363.274536,417.328491 
	C363.274536,417.328491 363.084900,417.036774 363.299866,416.254486 
	C363.224884,411.490723 363.149902,406.726990 363.289764,401.332092 
M911.951843,365.223969 
	C912.295837,362.753235 912.491943,360.251251 913.006958,357.816711 
	C917.294617,337.548492 938.370483,327.749573 956.356873,337.654205 
	C966.450439,343.212402 969.647339,352.762634 969.943848,363.272919 
	C970.432190,380.585022 970.208557,397.917603 970.258545,415.241577 
	C970.287231,425.198273 970.263672,435.155090 970.263672,445.140442 
	C979.458984,445.140442 988.363525,445.140442 997.697876,445.140442 
	C997.697876,435.491455 997.767578,426.197968 997.683899,416.905884 
	C997.489075,395.260345 998.050598,373.564301 996.720947,351.986389 
	C995.643555,334.502380 987.422974,320.214905 969.931091,314.038239 
	C963.096436,311.624847 955.330383,311.377838 947.951538,311.087952 
	C936.962891,310.656250 927.459412,314.837921 919.907837,322.846527 
	C916.679993,326.269867 914.064026,330.270203 911.117493,334.076111 
	C910.844055,333.355499 910.611450,332.742584 910.601501,331.324799 
	C910.518616,330.501648 910.435791,329.678528 910.620117,328.011414 
	C910.491028,325.366577 910.362000,322.721771 910.469666,319.211548 
	C910.469666,317.139709 910.469666,315.067871 910.469666,312.645844 
	C908.199768,312.760315 906.581299,312.841949 904.192505,312.701752 
	C903.133667,312.788452 902.074829,312.875153 900.374634,312.711212 
	C898.577576,312.795837 896.780457,312.880463 894.343811,312.774780 
	C893.905579,312.827301 893.467285,312.879791 892.434692,312.606140 
	C889.974609,312.606140 887.514526,312.606140 885.313110,312.606140 
	C884.904846,313.320312 884.602783,313.601990 884.602722,313.883728 
	C884.591797,356.774353 884.594604,399.664948 884.671143,442.555481 
	C884.672668,443.410919 885.547546,444.264801 886.924072,445.357941 
	C894.610474,445.278961 902.296875,445.199951 910.878235,445.186401 
	C911.130432,441.028015 911.382690,436.869598 911.844788,431.833893 
	C911.779236,422.547638 911.713745,413.261353 911.813660,403.127380 
	C911.791077,390.758820 911.768433,378.390289 911.951843,365.223969 
M826.171692,319.844025 
	C826.211548,321.220032 826.251465,322.596008 826.092224,324.850098 
	C825.712402,327.612335 825.332581,330.374542 824.702209,332.342865 
	C824.499939,332.152802 824.297668,331.962769 824.214966,331.606079 
	C824.214966,331.606079 823.927795,331.378265 823.707520,330.705780 
	C819.556152,323.848511 814.013550,318.403717 806.705872,315.086090 
	C783.789734,304.682220 753.280273,312.394714 739.301453,338.645569 
	C730.719421,354.761841 728.763184,372.082947 731.157471,389.864441 
	C734.828491,417.128693 750.820984,439.875641 780.832764,442.463593 
	C794.413025,443.634613 807.117249,441.265198 817.261658,431.273621 
	C820.335632,428.245941 822.767639,424.566406 825.493774,421.185455 
	C825.986938,431.550018 825.995361,441.694244 824.924438,451.723236 
	C823.866882,461.627625 817.978271,468.525940 808.612854,471.943817 
	C804.598389,473.408875 800.260559,474.452545 796.008972,474.718536 
	C781.524414,475.624512 768.408813,473.033966 760.453674,458.929810 
	C759.950806,458.038177 758.305359,456.959351 757.536255,457.178345 
	C749.954651,459.336945 742.446106,461.751862 734.906677,464.097290 
	C738.828247,475.161652 744.837158,482.921387 754.891479,487.996277 
	C777.760742,499.539459 801.368408,499.915070 824.777649,490.131409 
	C841.333008,483.212250 850.129822,469.854004 852.263428,451.223572 
	C852.449768,448.073364 852.794800,444.923309 852.798523,441.772888 
	C852.847534,400.372101 852.851318,358.971313 852.850037,317.570496 
	C852.849976,315.983551 852.684814,314.396606 852.591125,312.710815 
	C843.641907,312.710815 835.103821,312.710815 826.336182,312.710815 
	C826.336182,315.118591 826.336182,317.075531 826.171692,319.844025 
M298.051117,391.866821 
	C301.019257,388.946167 303.849518,385.865570 306.997040,383.153046 
	C309.746399,380.783691 310.707245,378.181427 310.665131,374.493896 
	C310.451843,355.834320 310.562408,337.170990 310.584808,318.509003 
	C310.586365,317.232697 310.795715,315.956665 310.911316,314.648071 
	C322.826660,314.648071 334.406982,314.648071 346.657776,314.648071 
	C346.657776,323.950226 346.657776,332.977844 346.657776,342.005463 
	C354.212250,333.776001 367.194183,329.320190 362.962952,314.371674 
	C389.354553,314.371674 414.753510,314.371674 440.243347,314.371674 
	C440.441010,313.242859 440.646820,312.614777 440.647339,311.986542 
	C440.677246,275.661499 440.640411,239.336273 440.775177,203.011673 
	C440.789978,199.015900 438.548279,199.384567 435.955078,199.386795 
	C413.626862,199.405991 391.298676,199.383148 368.970459,199.373032 
	C367.201874,199.372238 365.433258,199.372925 363.146423,199.372925 
	C363.146423,188.093826 363.146423,177.533463 363.146423,166.806137 
	C339.841583,166.806137 317.059845,166.806137 293.639282,166.806137 
	C293.639282,177.544037 293.639282,188.273193 293.639282,199.385956 
	C286.049561,199.385956 279.082581,199.205017 272.135254,199.494904 
	C270.017853,199.583252 267.576385,200.499313 265.925415,201.831863 
	C250.518555,214.267166 235.281204,226.912277 219.914230,239.397476 
	C217.431046,241.414993 216.150391,243.431763 216.196960,246.878174 
	C216.435516,264.537872 216.346375,282.202026 216.368759,299.864624 
	C216.374619,304.498596 216.369644,309.132538 216.369644,314.441650 
	C242.280563,314.441650 267.798370,314.441650 293.933868,314.441650 
	C293.933868,331.736908 293.933868,348.355103 293.702637,365.755890 
	C293.702637,375.590454 293.702637,385.425018 293.702637,396.395813 
	C295.524536,394.325226 296.495819,393.221405 298.051117,391.866821 
M561.606018,267.068207 
	C550.363770,270.161987 540.421387,275.386353 532.393677,284.096619 
	C514.893921,303.084137 514.287598,339.508484 543.929321,353.994568 
	C555.563782,359.680511 568.492432,362.736115 580.867249,366.883453 
	C589.342896,369.723938 598.042114,371.970764 606.338684,375.248962 
	C613.057983,377.903931 617.948975,383.009155 620.048401,390.194672 
	C623.536743,402.133362 616.553589,414.591522 603.547302,419.959351 
	C593.703247,424.022125 583.370789,424.595001 573.176453,422.739899 
	C560.053284,420.351807 549.570251,413.870667 545.341614,400.142181 
	C544.725769,398.142639 544.296326,396.085693 543.851624,394.334961 
	C534.432983,394.334961 525.504944,394.334961 516.271057,394.334961 
	C517.635010,414.214813 526.330872,429.244904 543.542236,438.740204 
	C559.385620,447.480804 576.653259,449.117523 594.359924,447.326202 
	C610.109009,445.732971 624.466370,441.015564 636.079163,429.442413 
	C654.033325,411.549530 655.325928,374.115814 629.004456,357.571075 
	C618.870239,351.201080 607.560547,348.226196 596.257080,344.903900 
	C583.922546,341.278595 571.308472,337.894531 559.795715,332.365723 
	C545.858887,325.672821 544.585815,307.414764 556.442627,297.332214 
	C568.593689,286.999451 582.851135,286.478271 597.441528,290.121246 
	C610.281921,293.327301 617.579102,302.307587 620.469482,314.874817 
	C629.575684,314.874817 638.430908,314.874817 647.386902,314.874817 
	C646.007019,300.396454 640.966736,288.199554 629.795776,279.251251 
	C609.603516,263.076569 586.500671,262.207733 561.606018,267.068207 
M1140.941284,348.578064 
	C1134.968018,332.210236 1124.123413,320.565033 1107.709839,314.333344 
	C1099.146851,311.082306 1090.229370,310.604187 1081.198730,310.953156 
	C1066.734253,311.512115 1053.968994,316.488922 1043.552856,326.491791 
	C1027.706055,341.709900 1022.911682,361.238708 1023.451294,382.369263 
	C1023.942505,401.607269 1029.372681,419.022125 1044.037109,432.585022 
	C1063.511719,450.596863 1100.281738,453.279602 1123.200317,438.216309 
	C1133.104858,431.706512 1139.916016,422.857697 1143.442505,410.846252 
	C1135.537354,409.514801 1128.053223,408.155121 1120.526733,407.098297 
	C1119.455078,406.947845 1117.601685,407.963196 1117.081787,408.950684 
	C1110.342285,421.750519 1099.066040,425.919800 1085.538330,425.593262 
	C1063.442139,425.059906 1049.510376,407.631134 1050.758911,385.791534 
	C1082.121704,385.791534 1113.516479,385.791534 1145.110718,385.791534 
	C1145.782471,373.084991 1145.157104,361.037872 1140.941284,348.578064 
M1180.036377,305.443481 
	C1180.036377,307.710754 1180.036377,309.978027 1180.036377,312.665131 
	C1173.183960,312.665131 1166.930054,312.665131 1160.485596,312.665131 
	C1160.485596,319.977631 1160.485596,326.857178 1160.485596,334.122803 
	C1167.093384,334.122803 1173.358398,334.122803 1180.035767,334.122803 
	C1180.035767,336.295105 1180.034912,338.094208 1180.035889,339.893311 
	C1180.047974,363.891357 1179.860352,387.891846 1180.151978,411.886475 
	C1180.311157,424.968658 1185.025146,436.057648 1197.339600,442.351227 
	C1209.699951,448.668182 1222.680786,448.273590 1235.723145,444.726166 
	C1236.677734,444.466492 1238.106934,442.913849 1237.981567,442.194794 
	C1236.797607,435.404541 1235.324097,428.664764 1234.043335,422.441010 
	C1229.120728,422.761627 1224.985229,423.418945 1220.892822,423.214874 
	C1212.923218,422.817535 1208.847412,418.929596 1207.599243,411.047577 
	C1207.237427,408.761902 1207.241821,406.403992 1207.234619,404.078735 
	C1207.194946,391.257721 1207.201294,378.436554 1207.196655,365.615417 
	C1207.192871,355.206879 1207.195923,344.798309 1207.195923,333.938965 
	C1216.874878,333.938965 1226.123779,333.938965 1235.622559,333.938965 
	C1235.622559,326.735382 1235.622559,319.983643 1235.622559,312.525452 
	C1226.136597,312.525452 1216.778687,312.525452 1206.845703,312.525452 
	C1206.845703,300.941711 1206.845703,290.059448 1206.845703,279.314270 
	C1197.646362,279.314270 1189.043579,279.314270 1180.037109,279.314270 
	C1180.037109,287.863922 1180.037109,296.159241 1180.036377,305.443481 
M703.352600,266.178741 
	C702.052551,265.163147 700.841858,263.998352 699.437073,263.157806 
	C693.294312,259.482147 684.356628,260.281677 678.992981,264.888092 
	C674.065674,269.119720 672.290833,276.895355 674.750061,283.039734 
	C677.569885,290.085236 683.186707,293.114838 690.304443,293.403290 
	C696.706177,293.662689 702.040283,290.968719 705.310181,285.358368 
	C709.043518,278.952972 708.119568,272.640076 703.352600,266.178741 
z"/>
<path fill="#BFC3C7" opacity="1.000000" stroke="none" 
	d="
M293.933838,364.973297 
	C293.933868,348.355103 293.933868,331.736908 293.933868,314.441650 
	C267.798370,314.441650 242.280563,314.441650 216.369644,314.441650 
	C216.369644,309.132538 216.374619,304.498596 216.368759,299.864624 
	C216.346375,282.202026 216.435516,264.537872 216.196960,246.878174 
	C216.150391,243.431763 217.431046,241.414993 219.914230,239.397476 
	C235.281204,226.912277 250.518555,214.267166 265.925415,201.831863 
	C267.576385,200.499313 270.017853,199.583252 272.135254,199.494904 
	C279.082581,199.205017 286.049561,199.385956 293.639282,199.385956 
	C293.639282,188.273193 293.639282,177.544037 293.639282,166.806137 
	C317.059845,166.806137 339.841583,166.806137 363.146423,166.806137 
	C363.146423,177.533463 363.146423,188.093826 363.146423,199.372925 
	C365.433258,199.372925 367.201874,199.372238 368.970459,199.373032 
	C391.298676,199.383148 413.626862,199.405991 435.955078,199.386795 
	C438.548279,199.384567 440.789978,199.015900 440.775177,203.011673 
	C440.640411,239.336273 440.677246,275.661499 440.647339,311.986542 
	C440.646820,312.614777 440.441010,313.242859 440.243347,314.371674 
	C414.753510,314.371674 389.354553,314.371674 362.962952,314.371674 
	C367.194183,329.320190 354.212250,333.776001 346.657776,342.005463 
	C346.657776,332.977844 346.657776,323.950226 346.657776,314.648071 
	C334.406982,314.648071 322.826660,314.648071 310.911316,314.648071 
	C310.795715,315.956665 310.586365,317.232697 310.584808,318.509003 
	C310.562408,337.170990 310.451843,355.834320 310.665131,374.493896 
	C310.707245,378.181427 309.746399,380.783691 306.997040,383.153046 
	C303.849518,385.865570 301.019257,388.946167 297.344818,391.882843 
	C296.091522,389.466583 295.251038,387.057739 295.054352,384.597443 
	C294.532379,378.067932 294.288422,371.516205 293.933838,364.973297 
M371.675629,231.507812 
	C371.675629,226.572311 371.675629,221.636826 371.675629,216.483475 
	C370.014282,216.404068 368.879944,216.302887 367.745514,216.302475 
	C337.914520,216.291595 308.083099,216.227097 278.253265,216.410782 
	C275.875488,216.425430 273.113831,217.671692 271.202148,219.190720 
	C260.905029,227.372696 251.024414,236.089432 240.574997,244.064667 
	C235.431091,247.990585 232.657227,252.062119 232.913696,258.833771 
	C233.396347,271.577148 233.052902,284.351807 233.052902,297.280884 
	C279.513245,297.280884 325.408630,297.280884 371.658844,297.280884 
	C371.658844,275.444733 371.658844,253.975098 371.675629,231.507812 
M398.579987,297.557739 
	C406.862305,297.557739 415.144592,297.557739 423.467957,297.557739 
	C423.467957,270.190704 423.467957,243.414154 423.467957,216.735382 
	C411.574371,216.735382 400.198853,216.735382 388.837219,216.735382 
	C388.837219,243.847015 388.837219,270.559448 388.837219,297.566467 
	C391.999664,297.566467 394.805145,297.566467 398.579987,297.557739 
M330.497742,183.733154 
	C323.923004,183.733154 317.348236,183.733154 310.872742,183.733154 
	C310.872742,189.311172 310.872742,194.197083 310.872742,199.142914 
	C322.937897,199.142914 334.612030,199.142914 346.236786,199.142914 
	C346.236786,193.855179 346.236786,188.959915 346.236786,183.732681 
	C341.097321,183.732681 336.296478,183.732681 330.497742,183.733154 
z"/>
<path fill="#C2C6C9" opacity="1.000000" stroke="none" 
	d="
M852.046509,452.013641 
	C850.129822,469.854004 841.333008,483.212250 824.777649,490.131409 
	C801.368408,499.915070 777.760742,499.539459 754.891479,487.996277 
	C744.837158,482.921387 738.828247,475.161652 734.906677,464.097290 
	C742.446106,461.751862 749.954651,459.336945 757.536255,457.178345 
	C758.305359,456.959351 759.950806,458.038177 760.453674,458.929810 
	C768.408813,473.033966 781.524414,475.624512 796.008972,474.718536 
	C800.260559,474.452545 804.598389,473.408875 808.612854,471.943817 
	C817.978271,468.525940 823.866882,461.627625 824.924438,451.723236 
	C825.995361,441.694244 825.986938,431.550018 825.493774,421.185455 
	C822.767639,424.566406 820.335632,428.245941 817.261658,431.273621 
	C807.117249,441.265198 794.413025,443.634613 780.832764,442.463593 
	C750.820984,439.875641 734.828491,417.128693 731.157471,389.864441 
	C728.763184,372.082947 730.719421,354.761841 739.301453,338.645569 
	C753.280273,312.394714 783.789734,304.682220 806.705872,315.086090 
	C814.013550,318.403717 819.556152,323.848511 823.801147,331.121429 
	C823.894836,331.537079 824.095459,331.772766 824.095459,331.772766 
	C824.297668,331.962769 824.499939,332.152802 824.899719,333.050354 
	C825.772583,333.831940 826.447998,333.906036 827.123352,333.980133 
	C826.846008,330.644104 826.568665,327.308044 826.291382,323.972015 
	C826.251465,322.596008 826.211548,321.220032 826.577637,319.287415 
	C827.891541,314.676178 830.360046,313.354919 834.453369,313.856049 
	C837.731995,314.257446 841.098694,313.936554 844.426331,313.939728 
	C851.053101,313.946014 851.063904,313.947021 851.064636,320.468292 
	C851.069092,362.229858 851.054199,403.991486 851.110840,445.752960 
	C851.113708,447.840302 851.720825,449.926758 852.046509,452.013641 
M765.168335,406.213959 
	C773.151611,418.767853 785.041748,422.045654 798.883301,419.987976 
	C810.771362,418.220673 817.763062,410.380432 822.008972,399.763397 
	C827.393738,386.298737 827.117371,372.433258 823.827515,358.630737 
	C820.409912,344.292480 809.220154,334.537048 795.418152,333.053772 
	C781.812195,331.591553 769.367432,338.048035 763.745605,350.818237 
	C755.714661,369.060883 755.482910,387.498047 765.168335,406.213959 
z"/>
<path fill="#C2C6C9" opacity="1.000000" stroke="none" 
	d="
M562.017212,267.012512 
	C586.500671,262.207733 609.603516,263.076569 629.795776,279.251251 
	C640.966736,288.199554 646.007019,300.396454 647.386902,314.874817 
	C638.430908,314.874817 629.575684,314.874817 620.469482,314.874817 
	C617.579102,302.307587 610.281921,293.327301 597.441528,290.121246 
	C582.851135,286.478271 568.593689,286.999451 556.442627,297.332214 
	C544.585815,307.414764 545.858887,325.672821 559.795715,332.365723 
	C571.308472,337.894531 583.922546,341.278595 596.257080,344.903900 
	C607.560547,348.226196 618.870239,351.201080 629.004456,357.571075 
	C655.325928,374.115814 654.033325,411.549530 636.079163,429.442413 
	C624.466370,441.015564 610.109009,445.732971 594.359924,447.326202 
	C576.653259,449.117523 559.385620,447.480804 543.542236,438.740204 
	C526.330872,429.244904 517.635010,414.214813 516.271057,394.334961 
	C525.504944,394.334961 534.432983,394.334961 543.851624,394.334961 
	C544.296326,396.085693 544.725769,398.142639 545.341614,400.142181 
	C549.570251,413.870667 560.053284,420.351807 573.176453,422.739899 
	C583.370789,424.595001 593.703247,424.022125 603.547302,419.959351 
	C616.553589,414.591522 623.536743,402.133362 620.048401,390.194672 
	C617.948975,383.009155 613.057983,377.903931 606.338684,375.248962 
	C598.042114,371.970764 589.342896,369.723938 580.867249,366.883453 
	C568.492432,362.736115 555.563782,359.680511 543.929321,353.994568 
	C514.287598,339.508484 514.893921,303.084137 532.393677,284.096619 
	C540.421387,275.386353 550.363770,270.161987 562.017212,267.012512 
z"/>
<path fill="#C2C6C9" opacity="1.000000" stroke="none" 
	d="
M1141.036011,348.962921 
	C1145.157104,361.037872 1145.782471,373.084991 1145.110718,385.791534 
	C1113.516479,385.791534 1082.121704,385.791534 1050.758911,385.791534 
	C1049.510376,407.631134 1063.442139,425.059906 1085.538330,425.593262 
	C1099.066040,425.919800 1110.342285,421.750519 1117.081787,408.950684 
	C1117.601685,407.963196 1119.455078,406.947845 1120.526733,407.098297 
	C1128.053223,408.155121 1135.537354,409.514801 1143.442505,410.846252 
	C1139.916016,422.857697 1133.104858,431.706512 1123.200317,438.216309 
	C1100.281738,453.279602 1063.511719,450.596863 1044.037109,432.585022 
	C1029.372681,419.022125 1023.942505,401.607269 1023.451294,382.369263 
	C1022.911682,361.238708 1027.706055,341.709900 1043.552856,326.491791 
	C1053.968994,316.488922 1066.734253,311.512115 1081.198730,310.953156 
	C1090.229370,310.604187 1099.146851,311.082306 1107.709839,314.333344 
	C1124.123413,320.565033 1134.968018,332.210236 1141.036011,348.962921 
M1053.010132,355.754944 
	C1052.172241,359.240387 1051.334473,362.725830 1050.425171,366.508789 
	C1073.561035,366.508789 1095.907959,366.508789 1118.263184,366.508789 
	C1117.726685,346.779297 1104.921875,333.267822 1086.416504,332.444214 
	C1071.686646,331.788696 1060.314941,339.527588 1053.010132,355.754944 
z"/>
<path fill="#C1C5C8" opacity="1.000000" stroke="none" 
	d="
M910.232971,320.076935 
	C910.362000,322.721771 910.491028,325.366577 910.215210,328.650208 
	C909.999878,330.235870 910.189392,331.182770 910.378845,332.129700 
	C910.611450,332.742584 910.844055,333.355499 911.117493,334.076111 
	C914.064026,330.270203 916.679993,326.269867 919.907837,322.846527 
	C927.459412,314.837921 936.962891,310.656250 947.951538,311.087952 
	C955.330383,311.377838 963.096436,311.624847 969.931091,314.038239 
	C987.422974,320.214905 995.643555,334.502380 996.720947,351.986389 
	C998.050598,373.564301 997.489075,395.260345 997.683899,416.905884 
	C997.767578,426.197968 997.697876,435.491455 997.697876,445.140442 
	C988.363525,445.140442 979.458984,445.140442 970.263672,445.140442 
	C970.263672,435.155090 970.287231,425.198273 970.258545,415.241577 
	C970.208557,397.917603 970.432190,380.585022 969.943848,363.272919 
	C969.647339,352.762634 966.450439,343.212402 956.356873,337.654205 
	C938.370483,327.749573 917.294617,337.548492 913.006958,357.816711 
	C912.491943,360.251251 912.295837,362.753235 911.501709,365.783569 
	C910.707642,367.220062 910.070312,368.095001 910.064392,368.974182 
	C909.992920,379.555786 909.967285,390.138550 910.084045,400.719299 
	C910.096069,401.810181 911.102966,402.890076 911.648193,403.975098 
	C911.713745,413.261353 911.779236,422.547638 911.398682,432.563660 
	C910.629456,437.235931 910.306396,441.178467 909.983276,445.120972 
	C902.296875,445.199951 894.610474,445.278961 886.472351,444.762207 
	C886.016479,404.036652 886.109802,363.906281 885.897705,323.777557 
	C885.867737,318.106293 885.838501,313.407104 893.029053,312.932312 
	C893.467285,312.879791 893.905579,312.827301 894.935669,313.114655 
	C897.357056,313.290314 899.186523,313.126099 901.015991,312.961884 
	C902.074829,312.875153 903.133667,312.788452 904.846313,313.065735 
	C909.989075,313.572540 908.179932,318.199677 910.232971,320.076935 
z"/>
<path fill="#C0C4C8" opacity="1.000000" stroke="none" 
	d="
M363.054016,421.396210 
	C363.054016,421.396210 363.270020,421.673370 362.897156,422.135742 
	C362.709808,429.077118 362.895325,435.556122 363.080872,442.035095 
	C363.156525,442.773987 363.232178,443.512878 362.915802,444.925568 
	C362.348999,446.893280 362.025665,448.186798 362.022400,449.481140 
	C361.989197,462.540466 361.984253,475.600037 362.047241,488.659180 
	C362.054138,490.092682 362.535706,491.523865 362.797119,492.956146 
	C347.693939,506.687347 332.593079,520.421143 317.486603,534.148743 
	C310.229309,540.743530 302.961456,547.326782 295.351929,553.681763 
	C294.628906,552.620728 294.252411,551.793213 293.875977,550.965698 
	C293.783783,534.686462 293.640900,518.407410 293.610901,502.128052 
	C293.561554,475.370422 293.578705,448.612610 293.592010,421.854889 
	C293.592987,419.865662 293.787628,417.876465 294.201477,415.205688 
	C294.640961,414.154419 294.771210,413.784698 294.901489,413.414978 
	C314.161987,393.975464 333.420715,374.534180 352.685089,355.098511 
	C355.254181,352.506561 357.851776,349.942871 360.875854,347.510193 
	C361.901703,348.446625 362.487915,349.238983 363.074127,350.031342 
	C363.148407,353.049927 363.222687,356.068481 362.908325,359.843262 
	C362.701569,367.742401 362.883484,374.885376 363.065369,382.028320 
	C363.144958,384.716217 363.224518,387.404083 362.962036,390.734497 
	C362.773041,392.262726 362.926086,393.148438 363.079163,394.034180 
	C363.155487,394.771851 363.231842,395.509521 362.964722,396.811310 
	C362.774231,398.261810 362.927155,399.148224 363.080078,400.034607 
	C363.149994,400.467102 363.219879,400.899597 362.908447,401.962646 
	C362.713043,407.407715 362.898956,412.222229 363.084900,417.036774 
	C363.084900,417.036774 363.274536,417.328491 363.213501,417.914215 
	C363.119934,418.798859 363.087372,419.097748 363.054779,419.396667 
	C363.054779,419.396667 363.136780,419.493652 363.144531,419.994507 
	C363.119537,420.795654 363.086761,421.095947 363.054016,421.396210 
M346.563721,395.090240 
	C346.563721,392.043396 346.563721,388.996521 346.563721,386.781067 
	C335.109009,397.776001 323.557587,408.768677 312.178375,419.936829 
	C311.071564,421.023102 310.565552,423.192078 310.560699,424.860748 
	C310.474487,454.513702 310.504608,484.166962 310.537292,513.820190 
	C310.538391,514.829590 310.827026,515.838745 311.054382,517.322998 
	C322.310852,507.265411 333.181976,497.719116 343.791412,487.890381 
	C345.360077,486.437134 346.450317,483.657227 346.475769,481.476105 
	C346.685730,463.486603 346.567444,445.493530 346.600189,427.501617 
	C346.618073,417.685608 346.736023,407.869781 347.245453,397.719116 
	C347.103363,397.129791 346.961273,396.540466 346.563721,395.090240 
z"/>
<path fill="#C2C6C9" opacity="1.000000" stroke="none" 
	d="
M1180.036743,304.949036 
	C1180.037109,296.159241 1180.037109,287.863922 1180.037109,279.314270 
	C1189.043579,279.314270 1197.646362,279.314270 1206.845703,279.314270 
	C1206.845703,290.059448 1206.845703,300.941711 1206.845703,312.525452 
	C1216.778687,312.525452 1226.136597,312.525452 1235.622559,312.525452 
	C1235.622559,319.983643 1235.622559,326.735382 1235.622559,333.938965 
	C1226.123779,333.938965 1216.874878,333.938965 1207.195923,333.938965 
	C1207.195923,344.798309 1207.192871,355.206879 1207.196655,365.615417 
	C1207.201294,378.436554 1207.194946,391.257721 1207.234619,404.078735 
	C1207.241821,406.403992 1207.237427,408.761902 1207.599243,411.047577 
	C1208.847412,418.929596 1212.923218,422.817535 1220.892822,423.214874 
	C1224.985229,423.418945 1229.120728,422.761627 1234.043335,422.441010 
	C1235.324097,428.664764 1236.797607,435.404541 1237.981567,442.194794 
	C1238.106934,442.913849 1236.677734,444.466492 1235.723145,444.726166 
	C1222.680786,448.273590 1209.699951,448.668182 1197.339600,442.351227 
	C1185.025146,436.057648 1180.311157,424.968658 1180.151978,411.886475 
	C1179.860352,387.891846 1180.047974,363.891357 1180.035889,339.893311 
	C1180.034912,338.094208 1180.035767,336.295105 1180.035767,334.122803 
	C1173.358398,334.122803 1167.093384,334.122803 1160.485596,334.122803 
	C1160.485596,326.857178 1160.485596,319.977631 1160.485596,312.665131 
	C1166.930054,312.665131 1173.183960,312.665131 1180.036377,312.665131 
	C1180.036377,309.978027 1180.036377,307.710754 1180.036743,304.949036 
z"/>
<path fill="#C3C7CA" opacity="1.000000" stroke="none" 
	d="
M703.832642,430.002228 
	C703.881348,430.447235 703.930054,430.892273 703.526123,431.672058 
	C701.800720,432.881683 700.528015,433.756531 699.255249,434.631348 
	C700.782043,435.456268 702.308899,436.281158 703.835693,437.106049 
	C703.883179,437.807159 703.930725,438.508270 703.470947,439.576874 
	C701.547913,440.374603 699.791260,440.413055 698.772522,441.299530 
	C692.730164,446.557159 686.066650,443.112335 679.255249,443.784882 
	C680.747375,437.623444 683.618225,432.703186 680.934692,426.771301 
	C679.092346,422.698700 678.801697,417.891357 678.037292,413.375214 
	C677.509705,410.258728 678.179504,407.961395 682.162354,407.565125 
	C683.499817,407.432007 685.467834,405.482819 685.654663,404.153870 
	C685.854858,402.729126 684.656616,400.558136 683.394348,399.647797 
	C682.346436,398.892029 680.319885,399.493134 679.001343,399.493134 
	C679.001343,394.882080 679.008484,390.426178 678.998413,385.970337 
	C678.993225,383.677917 679.166016,381.360077 678.889771,379.098755 
	C678.394592,375.043701 677.621094,371.022644 676.963867,366.987366 
	C676.971619,352.968109 676.979370,338.948822 677.407104,324.389221 
	C681.287598,321.189758 681.077454,318.903961 677.130310,316.998230 
	C677.083008,316.553162 677.035706,316.108124 677.464905,315.330292 
	C680.966003,314.317139 683.990662,313.636749 687.015259,312.956360 
	C689.376526,312.959290 691.737793,312.962219 694.816833,313.211548 
	C700.795959,314.071472 702.265198,316.890686 702.145874,322.198029 
	C701.758667,339.421143 701.950745,356.658844 702.082336,373.889679 
	C702.095459,375.598206 703.222229,377.298248 703.832092,379.002258 
	C703.880920,380.070465 703.929749,381.138641 703.562866,382.735199 
	C701.605103,385.999786 700.704956,388.679230 703.832092,391.002228 
	C703.880493,391.447296 703.928894,391.892395 703.547241,392.684875 
	C702.151428,393.893799 701.185791,394.755371 700.220093,395.616882 
	C701.425781,396.412048 702.631409,397.207214 703.837036,398.002380 
	C703.884338,398.447662 703.931641,398.892914 703.547241,399.815765 
	C702.744385,404.143768 702.275269,407.987976 702.029419,411.846344 
	C701.780884,415.746918 703.536560,420.529266 697.166382,420.802338 
	C699.649841,424.229706 701.741211,427.115967 703.832642,430.002228 
z"/>
<path fill="#BFC3C7" opacity="1.000000" stroke="none" 
	d="
M703.594910,266.453491 
	C708.119568,272.640076 709.043518,278.952972 705.310181,285.358368 
	C702.040283,290.968719 696.706177,293.662689 690.304443,293.403290 
	C683.186707,293.114838 677.569885,290.085236 674.750061,283.039734 
	C672.290833,276.895355 674.065674,269.119720 678.992981,264.888092 
	C684.356628,260.281677 693.294312,259.482147 699.437073,263.157806 
	C700.841858,263.998352 702.052551,265.163147 703.594910,266.453491 
z"/>
<path fill="#C1C5C8" opacity="1.000000" stroke="none" 
	d="
M676.670471,367.288635 
	C677.621094,371.022644 678.394592,375.043701 678.889771,379.098755 
	C679.166016,381.360077 678.993225,383.677917 678.998413,385.970337 
	C679.008484,390.426178 679.001343,394.882080 679.001343,399.493134 
	C680.319885,399.493134 682.346436,398.892029 683.394348,399.647797 
	C684.656616,400.558136 685.854858,402.729126 685.654663,404.153870 
	C685.467834,405.482819 683.499817,407.432007 682.162354,407.565125 
	C678.179504,407.961395 677.509705,410.258728 678.037292,413.375214 
	C678.801697,417.891357 679.092346,422.698700 680.934692,426.771301 
	C683.618225,432.703186 680.747375,437.623444 679.255249,443.784882 
	C686.066650,443.112335 692.730164,446.557159 698.772522,441.299530 
	C699.791260,440.413055 701.547913,440.374603 703.395752,439.921844 
	C703.827820,441.541870 703.827820,443.184418 703.827820,445.145630 
	C695.023254,445.145630 686.277954,445.145630 676.377075,445.145630 
	C676.377075,419.426178 676.377075,393.508057 676.670471,367.288635 
z"/>
<path fill="#B1B5B8" opacity="1.000000" stroke="none" 
	d="
M852.154968,451.618591 
	C851.720825,449.926758 851.113708,447.840302 851.110840,445.752960 
	C851.054199,403.991486 851.069092,362.229858 851.064636,320.468292 
	C851.063904,313.947021 851.053101,313.946014 844.426331,313.939728 
	C841.098694,313.936554 837.731995,314.257446 834.453369,313.856049 
	C830.360046,313.354919 827.891541,314.676178 826.659912,318.881653 
	C826.336182,317.075531 826.336182,315.118591 826.336182,312.710815 
	C835.103821,312.710815 843.641907,312.710815 852.591125,312.710815 
	C852.684814,314.396606 852.849976,315.983551 852.850037,317.570496 
	C852.851318,358.971313 852.847534,400.372101 852.798523,441.772888 
	C852.794800,444.923309 852.449768,448.073364 852.154968,451.618591 
z"/>
<path fill="#D1D5D8" opacity="1.000000" stroke="none" 
	d="
M892.731873,312.769226 
	C885.838501,313.407104 885.867737,318.106293 885.897705,323.777557 
	C886.109802,363.906281 886.016479,404.036652 886.017822,444.642944 
	C885.547546,444.264801 884.672668,443.410919 884.671143,442.555481 
	C884.594604,399.664948 884.591797,356.774353 884.602722,313.883728 
	C884.602783,313.601990 884.904846,313.320312 885.313110,312.606140 
	C887.514526,312.606140 889.974609,312.606140 892.731873,312.769226 
z"/>
<path fill="#C1C5C8" opacity="1.000000" stroke="none" 
	d="
M703.907043,378.538757 
	C703.222229,377.298248 702.095459,375.598206 702.082336,373.889679 
	C701.950745,356.658844 701.758667,339.421143 702.145874,322.198029 
	C702.265198,316.890686 700.795959,314.071472 695.259277,313.209076 
	C697.924988,312.960175 700.866089,312.960175 703.981995,312.960175 
	C703.981995,335.005798 703.981995,356.540527 703.907043,378.538757 
z"/>
<path fill="#D1D5D8" opacity="1.000000" stroke="none" 
	d="
M363.011658,492.603882 
	C362.535706,491.523865 362.054138,490.092682 362.047241,488.659180 
	C361.984253,475.600037 361.989197,462.540466 362.022400,449.481140 
	C362.025665,448.186798 362.348999,446.893280 362.797852,445.282013 
	C363.123352,460.726990 363.174774,476.489288 363.011658,492.603882 
z"/>
<path fill="#C1C5C8" opacity="1.000000" stroke="none" 
	d="
M703.907104,429.538666 
	C701.741211,427.115967 699.649841,424.229706 697.166382,420.802338 
	C703.536560,420.529266 701.780884,415.746918 702.029419,411.846344 
	C702.275269,407.987976 702.744385,404.143768 703.474915,400.145660 
	C703.883362,409.690338 703.932434,419.382721 703.907104,429.538666 
z"/>
<path fill="#D1D5D8" opacity="1.000000" stroke="none" 
	d="
M911.730957,403.551239 
	C911.102966,402.890076 910.096069,401.810181 910.084045,400.719299 
	C909.967285,390.138550 909.992920,379.555786 910.064392,368.974182 
	C910.070312,368.095001 910.707642,367.220062 911.398743,366.182434 
	C911.768433,378.390289 911.791077,390.758820 911.730957,403.551239 
z"/>
<path fill="#D1D5D8" opacity="1.000000" stroke="none" 
	d="
M293.818237,365.364594 
	C294.288422,371.516205 294.532379,378.067932 295.054352,384.597443 
	C295.251038,387.057739 296.091522,389.466583 297.052795,392.008240 
	C296.495819,393.221405 295.524536,394.325226 293.702637,396.395813 
	C293.702637,385.425018 293.702637,375.590454 293.818237,365.364594 
z"/>
<path fill="#D1D5D8" opacity="1.000000" stroke="none" 
	d="
M363.172394,381.634644 
	C362.883484,374.885376 362.701569,367.742401 362.794525,360.282532 
	C363.139374,367.057404 363.209381,374.149200 363.172394,381.634644 
z"/>
<path fill="#D1D5D8" opacity="1.000000" stroke="none" 
	d="
M363.189941,441.725464 
	C362.895325,435.556122 362.709808,429.077118 362.798859,422.281403 
	C363.148651,428.448395 363.223846,434.932098 363.189941,441.725464 
z"/>
<path fill="#D1D5D8" opacity="1.000000" stroke="none" 
	d="
M363.192383,416.645630 
	C362.898956,412.222229 362.713043,407.407715 362.801025,402.278198 
	C363.149902,406.726990 363.224884,411.490723 363.192383,416.645630 
z"/>
<path fill="#C1C5C8" opacity="1.000000" stroke="none" 
	d="
M686.730469,312.671326 
	C683.990662,313.636749 680.966003,314.317139 677.531860,314.999634 
	C678.105469,314.141968 678.983643,312.758820 680.094543,312.536072 
	C682.139404,312.126038 684.321045,312.398346 686.730469,312.671326 
z"/>
<path fill="#C1C5C8" opacity="1.000000" stroke="none" 
	d="
M703.911316,436.749115 
	C702.308899,436.281158 700.782043,435.456268 699.255249,434.631348 
	C700.528015,433.756531 701.800720,432.881683 703.454956,432.002197 
	C703.886597,433.462402 703.936768,434.927307 703.911316,436.749115 
z"/>
<path fill="#B1B5B8" opacity="1.000000" stroke="none" 
	d="
M826.191772,324.411072 
	C826.568665,327.308044 826.846008,330.644104 827.123352,333.980133 
	C826.447998,333.906036 825.772583,333.831940 825.025024,333.447296 
	C825.332581,330.374542 825.712402,327.612335 826.191772,324.411072 
z"/>
<path fill="#D1D5D8" opacity="1.000000" stroke="none" 
	d="
M910.430786,445.153687 
	C910.306396,441.178467 910.629456,437.235931 911.293762,433.002319 
	C911.382690,436.869598 911.130432,441.028015 910.430786,445.153687 
z"/>
<path fill="#C1C5C8" opacity="1.000000" stroke="none" 
	d="
M677.059570,317.431641 
	C681.077454,318.903961 681.287598,321.189758 677.476929,323.925262 
	C677.080811,321.956116 677.034790,319.910583 677.059570,317.431641 
z"/>
<path fill="#C1C5C8" opacity="1.000000" stroke="none" 
	d="
M703.911987,397.589783 
	C702.631409,397.207214 701.425781,396.412048 700.220093,395.616882 
	C701.185791,394.755371 702.151428,393.893799 703.475525,393.014893 
	C703.884949,394.390717 703.935913,395.783936 703.911987,397.589783 
z"/>
<path fill="#C1C5C8" opacity="1.000000" stroke="none" 
	d="
M703.907043,390.562714 
	C700.704956,388.679230 701.605103,385.999786 703.489624,383.130737 
	C703.882019,385.373047 703.932007,387.748108 703.907043,390.562714 
z"/>
<path fill="#D1D5D8" opacity="1.000000" stroke="none" 
	d="
M910.351318,319.644226 
	C908.179932,318.199677 909.989075,313.572540 905.231445,313.176666 
	C906.581299,312.841949 908.199768,312.760315 910.469666,312.645844 
	C910.469666,315.067871 910.469666,317.139709 910.351318,319.644226 
z"/>
<path fill="#D1D5D8" opacity="1.000000" stroke="none" 
	d="
M363.171448,349.736023 
	C362.487915,349.238983 361.901703,348.446625 361.181763,347.383423 
	C361.534088,346.513245 362.020142,345.913940 363.056122,344.636536 
	C363.149597,346.748108 363.209167,348.094421 363.171448,349.736023 
z"/>
<path fill="#D1D5D8" opacity="1.000000" stroke="none" 
	d="
M900.695312,312.836548 
	C899.186523,313.126099 897.357056,313.290314 895.255493,313.209778 
	C896.780457,312.880463 898.577576,312.795837 900.695312,312.836548 
z"/>
<path fill="#D1D5D8" opacity="1.000000" stroke="none" 
	d="
M363.187073,399.793488 
	C362.927155,399.148224 362.774231,398.261810 362.851227,397.168579 
	C363.152130,397.825287 363.223114,398.688812 363.187073,399.793488 
z"/>
<path fill="#D1D5D8" opacity="1.000000" stroke="none" 
	d="
M363.186340,393.793182 
	C362.926086,393.148438 362.773041,392.262726 362.848938,391.169647 
	C363.149750,391.825592 363.221649,392.688904 363.186340,393.793182 
z"/>
<path fill="#D1D5D8" opacity="1.000000" stroke="none" 
	d="
M293.775024,551.316895 
	C294.252411,551.793213 294.628906,552.620728 295.035522,553.805054 
	C294.601807,553.330566 294.137939,552.499268 293.775024,551.316895 
z"/>
<path fill="#D1D5D8" opacity="1.000000" stroke="none" 
	d="
M910.490173,331.727234 
	C910.189392,331.182770 909.999878,330.235870 910.081665,329.072174 
	C910.435791,329.678528 910.518616,330.501648 910.490173,331.727234 
z"/>
<path fill="#D1D5D8" opacity="1.000000" stroke="none" 
	d="
M294.631714,413.586975 
	C294.771210,413.784698 294.640961,414.154419 294.319946,414.747131 
	C294.206787,414.566376 294.284363,414.162689 294.631714,413.586975 
z"/>
<path fill="#D1D5D8" opacity="1.000000" stroke="none" 
	d="
M363.164886,419.184631 
	C363.087372,419.097748 363.119934,418.798859 363.102448,418.048096 
	C363.126617,418.055054 363.200806,418.513855 363.164886,419.184631 
z"/>
<path fill="#D1D5D8" opacity="1.000000" stroke="none" 
	d="
M363.163452,421.183167 
	C363.086761,421.095947 363.119537,420.795654 363.101501,420.041229 
	C363.124786,420.048065 363.198853,420.509094 363.163452,421.183167 
z"/>
<path fill="#B1B5B8" opacity="1.000000" stroke="none" 
	d="
M824.155212,331.689423 
	C824.095459,331.772766 823.894836,331.537079 823.911316,331.457672 
	C823.927795,331.378265 824.214966,331.606079 824.155212,331.689423 
z"/>
<path fill="#030303" opacity="1.000000" stroke="none" 
	d="
M371.667236,232.006622 
	C371.658844,253.975098 371.658844,275.444733 371.658844,297.280884 
	C325.408630,297.280884 279.513245,297.280884 233.052902,297.280884 
	C233.052902,284.351807 233.396347,271.577148 232.913696,258.833771 
	C232.657227,252.062119 235.431091,247.990585 240.574997,244.064667 
	C251.024414,236.089432 260.905029,227.372696 271.202148,219.190720 
	C273.113831,217.671692 275.875488,216.425430 278.253265,216.410782 
	C308.083099,216.227097 337.914520,216.291595 367.745514,216.302475 
	C368.879944,216.302887 370.014282,216.404068 371.675629,216.483475 
	C371.675629,221.636826 371.675629,226.572311 371.667236,232.006622 
M325.181641,276.498230 
	C334.421570,277.507538 341.876282,273.943970 345.825165,266.629944 
	C349.653290,259.539673 348.679291,250.266373 343.470276,244.208832 
	C338.084778,237.946075 329.842682,235.642471 322.247223,238.277145 
	C313.881927,241.178864 308.832825,248.647476 308.992432,257.883392 
	C309.145905,266.762299 314.694580,273.400421 325.181641,276.498230 
z"/>
<path fill="#040404" opacity="1.000000" stroke="none" 
	d="
M398.095306,297.562103 
	C394.805145,297.566467 391.999664,297.566467 388.837219,297.566467 
	C388.837219,270.559448 388.837219,243.847015 388.837219,216.735382 
	C400.198853,216.735382 411.574371,216.735382 423.467957,216.735382 
	C423.467957,243.414154 423.467957,270.190704 423.467957,297.557739 
	C415.144592,297.557739 406.862305,297.557739 398.095306,297.562103 
z"/>
<path fill="#040404" opacity="1.000000" stroke="none" 
	d="
M330.996704,183.732910 
	C336.296478,183.732681 341.097321,183.732681 346.236786,183.732681 
	C346.236786,188.959915 346.236786,193.855179 346.236786,199.142914 
	C334.612030,199.142914 322.937897,199.142914 310.872742,199.142914 
	C310.872742,194.197083 310.872742,189.311172 310.872742,183.733154 
	C317.348236,183.733154 323.923004,183.733154 330.996704,183.732910 
z"/>
<path fill="#010101" opacity="1.000000" stroke="none" 
	d="
M764.992188,405.893616 
	C755.482910,387.498047 755.714661,369.060883 763.745605,350.818237 
	C769.367432,338.048035 781.812195,331.591553 795.418152,333.053772 
	C809.220154,334.537048 820.409912,344.292480 823.827515,358.630737 
	C827.117371,372.433258 827.393738,386.298737 822.008972,399.763397 
	C817.763062,410.380432 810.771362,418.220673 798.883301,419.987976 
	C785.041748,422.045654 773.151611,418.767853 764.992188,405.893616 
z"/>
<path fill="#010101" opacity="1.000000" stroke="none" 
	d="
M1053.134521,355.382050 
	C1060.314941,339.527588 1071.686646,331.788696 1086.416504,332.444214 
	C1104.921875,333.267822 1117.726685,346.779297 1118.263184,366.508789 
	C1095.907959,366.508789 1073.561035,366.508789 1050.425171,366.508789 
	C1051.334473,362.725830 1052.172241,359.240387 1053.134521,355.382050 
z"/>
<path fill="#040404" opacity="1.000000" stroke="none" 
	d="
M346.808838,398.053894 
	C346.736023,407.869781 346.618073,417.685608 346.600189,427.501617 
	C346.567444,445.493530 346.685730,463.486603 346.475769,481.476105 
	C346.450317,483.657227 345.360077,486.437134 343.791412,487.890381 
	C333.181976,497.719116 322.310852,507.265411 311.054382,517.322998 
	C310.827026,515.838745 310.538391,514.829590 310.537292,513.820190 
	C310.504608,484.166962 310.474487,454.513702 310.560699,424.860748 
	C310.565552,423.192078 311.071564,421.023102 312.178375,419.936829 
	C323.557587,408.768677 335.109009,397.776001 346.563721,386.781067 
	C346.563721,388.996521 346.563721,392.043396 346.588348,395.865784 
	C346.678253,397.112213 346.743530,397.583038 346.808838,398.053894 
z"/>
<path fill="#D1D5D8" opacity="1.000000" stroke="none" 
	d="
M347.027161,397.886505 
	C346.743530,397.583038 346.678253,397.112213 346.716064,396.296265 
	C346.961273,396.540466 347.103363,397.129791 347.027161,397.886505 
z"/>
<path fill="#D18535" opacity="1.000000" stroke="none" 
	d="
M324.782776,276.397583 
	C314.694580,273.400421 309.145905,266.762299 308.992432,257.883392 
	C308.832825,248.647476 313.881927,241.178864 322.247223,238.277145 
	C329.842682,235.642471 338.084778,237.946075 343.470276,244.208832 
	C348.679291,250.266373 349.653290,259.539673 345.825165,266.629944 
	C341.876282,273.943970 334.421570,277.507538 324.782776,276.397583 
M311.870209,263.213928 
	C312.673553,264.660187 313.340118,266.205322 314.302551,267.536499 
	C320.382111,275.945435 332.013794,277.392181 339.781128,270.764740 
	C348.052612,263.707153 348.577606,251.854172 340.948914,244.398026 
	C335.344604,238.920425 326.658020,237.526947 320.344116,241.092651 
	C312.762421,245.374344 309.615082,253.081329 311.870209,263.213928 
z"/>
<path fill="#FA8910" opacity="1.000000" stroke="none" 
	d="
M311.748901,262.825562 
	C309.615082,253.081329 312.762421,245.374344 320.344116,241.092651 
	C326.658020,237.526947 335.344604,238.920425 340.948914,244.398026 
	C348.577606,251.854172 348.052612,263.707153 339.781128,270.764740 
	C332.013794,277.392181 320.382111,275.945435 314.302551,267.536499 
	C313.340118,266.205322 312.673553,264.660187 311.748901,262.825562 
z"/>
</svg>